<svg width="42" height="34" viewBox="0 0 42 34" fill="none" xmlns="http://www.w3.org/2000/svg">
<path d="M14.25 15.5H9V11H14.25C14.8467 11 15.419 11.2371 15.841 11.659C16.2629 12.081 16.5 12.6533 16.5 13.25C16.5 13.8467 16.2629 14.419 15.841 14.841C15.419 15.2629 14.8467 15.5 14.25 15.5ZM15 18.5H9V24.5H15C15.7956 24.5 16.5587 24.1839 17.1213 23.6213C17.6839 23.0587 18 22.2956 18 21.5C18 20.7044 17.6839 19.9413 17.1213 19.3787C16.5587 18.8161 15.7956 18.5 15 18.5ZM30 15.5C29.0697 15.5003 28.1623 15.7889 27.4027 16.3262C26.6432 16.8634 26.0689 17.6229 25.7588 18.5H34.2412C33.9311 17.6229 33.3568 16.8634 32.5973 16.3262C31.8377 15.7889 30.9303 15.5003 30 15.5ZM42 3.5V30.5C42 31.2956 41.6839 32.0587 41.1213 32.6213C40.5587 33.1839 39.7956 33.5 39 33.5H3C2.20435 33.5 1.44129 33.1839 0.87868 32.6213C0.31607 32.0587 0 31.2956 0 30.5V3.5C0 2.70435 0.31607 1.94129 0.87868 1.37868C1.44129 0.81607 2.20435 0.5 3 0.5H39C39.7956 0.5 40.5587 0.81607 41.1213 1.37868C41.6839 1.94129 42 2.70435 42 3.5ZM24 9.5C24 9.89782 24.158 10.2794 24.4393 10.5607C24.7206 10.842 25.1022 11 25.5 11H34.5C34.8978 11 35.2794 10.842 35.5607 10.5607C35.842 10.2794 36 9.89782 36 9.5C36 9.10218 35.842 8.72064 35.5607 8.43934C35.2794 8.15804 34.8978 8 34.5 8H25.5C25.1022 8 24.7206 8.15804 24.4393 8.43934C24.158 8.72064 24 9.10218 24 9.5ZM21 21.5C20.9995 20.5173 20.7577 19.5497 20.2957 18.6824C19.8338 17.815 19.1658 17.0744 18.3506 16.5256C18.9673 15.7533 19.3534 14.8226 19.4645 13.8405C19.5757 12.8585 19.4074 11.865 18.979 10.9744C18.5507 10.0838 17.8796 9.33213 17.043 8.80595C16.2064 8.27976 15.2383 8.00041 14.25 8H7.5C7.10218 8 6.72064 8.15804 6.43934 8.43934C6.15804 8.72064 6 9.10218 6 9.5V26C6 26.3978 6.15804 26.7794 6.43934 27.0607C6.72064 27.342 7.10218 27.5 7.5 27.5H15C16.5913 27.5 18.1174 26.8679 19.2426 25.7426C20.3679 24.6174 21 23.0913 21 21.5ZM37.5 20C37.4999 18.285 36.912 16.6218 35.8344 15.2877C34.7567 13.9535 33.2544 13.029 31.5778 12.6682C29.9011 12.3075 28.1515 12.5322 26.6205 13.305C25.0894 14.0778 23.8695 15.3519 23.164 16.9151C22.4585 18.4783 22.31 20.236 22.7433 21.8954C23.1767 23.5547 24.1656 25.0155 25.5453 26.0341C26.925 27.0528 28.6122 27.5678 30.3256 27.4933C32.039 27.4189 33.6751 26.7595 34.9613 25.625C35.2596 25.3617 35.4412 24.9906 35.466 24.5935C35.4907 24.1963 35.3567 23.8056 35.0934 23.5072C34.9631 23.3595 34.8049 23.2388 34.6279 23.1522C34.4509 23.0656 34.2586 23.0148 34.0619 23.0025C33.6647 22.9777 33.274 23.1117 32.9756 23.375C32.4234 23.8615 31.7603 24.2052 31.0444 24.3758C30.3285 24.5465 29.5816 24.539 28.8693 24.3539C28.157 24.1688 27.5009 23.8119 26.9586 23.3143C26.4163 22.8168 26.0043 22.1938 25.7588 21.5H36C36.3978 21.5 36.7794 21.342 37.0607 21.0607C37.342 20.7794 37.5 20.3978 37.5 20Z" fill="black"/>
</svg>
