<svg width="33" height="33" viewBox="0 0 33 33" fill="none" xmlns="http://www.w3.org/2000/svg">
<path d="M31.1847 11.8181L15.1347 27.8681C14.7597 28.2429 14.2512 28.4534 13.721 28.4534C13.1908 28.4534 12.6823 28.2429 12.3072 27.8681L3.35472 18.8681C2.98031 18.4931 2.77002 17.9849 2.77002 17.455C2.77002 16.9251 2.98031 16.4168 3.35472 16.0418L5.85472 13.5418C6.22955 13.1686 6.73699 12.959 7.26597 12.959C7.79495 12.959 8.30239 13.1686 8.67722 13.5418L13.771 18.4818L25.866 6.5356C26.2408 6.16196 26.7486 5.95215 27.2778 5.95215C27.8071 5.95215 28.3148 6.16196 28.6897 6.5356L31.1835 8.9781C31.371 9.16394 31.5199 9.38508 31.6215 9.62875C31.7232 9.87243 31.7756 10.1338 31.7757 10.3978C31.7758 10.6619 31.7236 10.9233 31.6222 11.1671C31.5208 11.4108 31.3721 11.6321 31.1847 11.8181Z" fill="black"/>
</svg>
