<svg width="40" height="40" viewBox="0 0 40 40" fill="none" xmlns="http://www.w3.org/2000/svg">
<path d="M36.5 0.5H3.5C2.70435 0.5 1.94129 0.81607 1.37868 1.37868C0.81607 1.94129 0.5 2.70435 0.5 3.5V36.5C0.5 37.2956 0.81607 38.0587 1.37868 38.6213C1.94129 39.1839 2.70435 39.5 3.5 39.5H36.5C37.2956 39.5 38.0587 39.1839 38.6213 38.6213C39.1839 38.0587 39.5 37.2956 39.5 36.5V3.5C39.5 2.70435 39.1839 1.94129 38.6213 1.37868C38.0587 0.81607 37.2956 0.5 36.5 0.5ZM14 29C14 29.3978 13.842 29.7794 13.5607 30.0607C13.2794 30.342 12.8978 30.5 12.5 30.5C12.1022 30.5 11.7206 30.342 11.4393 30.0607C11.158 29.7794 11 29.3978 11 29V17C11 16.6022 11.158 16.2206 11.4393 15.9393C11.7206 15.658 12.1022 15.5 12.5 15.5C12.8978 15.5 13.2794 15.658 13.5607 15.9393C13.842 16.2206 14 16.6022 14 17V29ZM12.5 14C12.055 14 11.62 13.868 11.25 13.6208C10.88 13.3736 10.5916 13.0222 10.4213 12.611C10.251 12.1999 10.2064 11.7475 10.2932 11.311C10.38 10.8746 10.5943 10.4737 10.909 10.159C11.2237 9.84434 11.6246 9.63005 12.061 9.54323C12.4975 9.45642 12.9499 9.50097 13.361 9.67127C13.7722 9.84157 14.1236 10.13 14.3708 10.5C14.618 10.87 14.75 11.305 14.75 11.75C14.75 12.3467 14.5129 12.919 14.091 13.341C13.669 13.7629 13.0967 14 12.5 14ZM30.5 29C30.5 29.3978 30.342 29.7794 30.0607 30.0607C29.7794 30.342 29.3978 30.5 29 30.5C28.6022 30.5 28.2206 30.342 27.9393 30.0607C27.658 29.7794 27.5 29.3978 27.5 29V22.25C27.5 21.2554 27.1049 20.3016 26.4017 19.5983C25.6984 18.8951 24.7446 18.5 23.75 18.5C22.7554 18.5 21.8016 18.8951 21.0983 19.5983C20.3951 20.3016 20 21.2554 20 22.25V29C20 29.3978 19.842 29.7794 19.5607 30.0607C19.2794 30.342 18.8978 30.5 18.5 30.5C18.1022 30.5 17.7206 30.342 17.4393 30.0607C17.158 29.7794 17 29.3978 17 29V17C17.0019 16.6326 17.1385 16.2786 17.384 16.0053C17.6295 15.7319 17.9668 15.5582 18.332 15.517C18.6971 15.4759 19.0646 15.5702 19.3648 15.782C19.665 15.9938 19.877 16.3085 19.9606 16.6663C20.9753 15.9779 22.1584 15.5789 23.3828 15.5122C24.6071 15.4455 25.8265 15.7136 26.91 16.2876C27.9936 16.8617 28.9002 17.72 29.5327 18.7705C30.1652 19.8209 30.4996 21.0238 30.5 22.25V29Z" fill="black"/>
</svg>
