<svg width="240" height="80" viewBox="0 0 240 80" fill="none" xmlns="http://www.w3.org/2000/svg">
<path d="M195.285 79V53.9091H204.04V58.679H204.302C204.759 56.9148 205.483 55.6243 206.474 54.8075C207.476 53.9907 208.647 53.5824 209.986 53.5824C210.379 53.5824 210.765 53.615 211.146 53.6804C211.538 53.7348 211.914 53.8165 212.273 53.9254V61.6193C211.827 61.4668 211.277 61.3525 210.624 61.2763C209.97 61.2 209.409 61.1619 208.941 61.1619C208.059 61.1619 207.264 61.3634 206.556 61.7663C205.859 62.1584 205.309 62.7138 204.906 63.4325C204.503 64.1404 204.302 64.9735 204.302 65.9318V79H195.285Z" fill="#1E222C"/>
<path d="M182.541 79.4574C179.862 79.4574 177.553 78.9455 175.615 77.9219C173.687 76.8873 172.201 75.4062 171.155 73.4787C170.121 71.5402 169.604 69.2206 169.604 66.5199C169.604 63.928 170.126 61.6629 171.172 59.7244C172.217 57.786 173.693 56.2777 175.599 55.1996C177.504 54.1214 179.753 53.5824 182.345 53.5824C184.24 53.5824 185.955 53.8764 187.491 54.4645C189.026 55.0525 190.338 55.9074 191.428 57.0291C192.517 58.1399 193.355 59.4903 193.943 61.0802C194.531 62.6702 194.825 64.4616 194.825 66.4545V68.5454H172.413V63.5795H186.527C186.516 62.8608 186.331 62.2291 185.972 61.6846C185.623 61.1292 185.149 60.6991 184.55 60.3942C183.962 60.0783 183.293 59.9204 182.541 59.9204C181.811 59.9204 181.142 60.0783 180.532 60.3942C179.922 60.6991 179.432 61.1238 179.062 61.6683C178.702 62.2128 178.512 62.8499 178.49 63.5795V68.9375C178.49 69.7434 178.659 70.4621 178.996 71.0937C179.334 71.7254 179.819 72.2209 180.45 72.5802C181.082 72.9396 181.844 73.1193 182.737 73.1193C183.358 73.1193 183.924 73.0322 184.436 72.8579C184.959 72.6837 185.405 72.4332 185.776 72.1065C186.146 71.7689 186.418 71.366 186.592 70.8977H194.825C194.542 72.6401 193.872 74.1539 192.816 75.4389C191.76 76.713 190.36 77.7041 188.618 78.4119C186.886 79.1089 184.861 79.4574 182.541 79.4574Z" fill="#1E222C"/>
<path d="M153.172 79.3267C151.386 79.3267 149.742 78.8584 148.239 77.9219C146.747 76.9853 145.549 75.5641 144.645 73.6584C143.752 71.7526 143.306 69.3513 143.306 66.4545C143.306 63.4271 143.774 60.9659 144.711 59.071C145.658 57.1761 146.878 55.7876 148.37 54.9055C149.873 54.0234 151.452 53.5824 153.107 53.5824C154.349 53.5824 155.438 53.8002 156.374 54.2358C157.311 54.6605 158.095 55.2322 158.726 55.951C159.358 56.6588 159.837 57.4375 160.164 58.2869H160.295V45.5454H169.312V79H160.36V74.8835H160.164C159.815 75.7329 159.314 76.4953 158.661 77.1704C158.019 77.8347 157.234 78.3629 156.309 78.755C155.394 79.1361 154.349 79.3267 153.172 79.3267ZM156.505 72.4006C157.332 72.4006 158.04 72.161 158.628 71.6818C159.227 71.1917 159.685 70.5057 160.001 69.6236C160.327 68.7306 160.491 67.6742 160.491 66.4545C160.491 65.2131 160.327 64.1513 160.001 63.2692C159.685 62.3762 159.227 61.6955 158.628 61.2273C158.04 60.7481 157.332 60.5085 156.505 60.5085C155.677 60.5085 154.969 60.7481 154.381 61.2273C153.804 61.6955 153.358 62.3762 153.042 63.2692C152.737 64.1513 152.584 65.2131 152.584 66.4545C152.584 67.696 152.737 68.7632 153.042 69.6562C153.358 70.5383 153.804 71.219 154.381 71.6981C154.969 72.1664 155.677 72.4006 156.505 72.4006Z" fill="#1E222C"/>
<path d="M126.589 64.8863V79H117.572V53.9091H126.131V58.679H126.393C126.937 57.089 127.896 55.8421 129.268 54.9382C130.651 54.0343 132.263 53.5824 134.103 53.5824C135.878 53.5824 137.419 53.9907 138.726 54.8075C140.044 55.6134 141.062 56.7242 141.781 58.1399C142.51 59.5556 142.87 61.1728 142.859 62.9915V79H133.842V64.8863C133.852 63.6449 133.537 62.6702 132.894 61.9623C132.263 61.2545 131.38 60.9006 130.248 60.9006C129.507 60.9006 128.859 61.0639 128.304 61.3906C127.759 61.7064 127.34 62.1638 127.046 62.7628C126.752 63.3508 126.6 64.0587 126.589 64.8863Z" fill="#1E222C"/>
<path d="M100.605 79.392C99.0046 79.392 97.5889 79.1307 96.3583 78.6079C95.1386 78.0743 94.1803 77.2684 93.4833 76.1903C92.7864 75.1122 92.4379 73.74 92.4379 72.0738C92.4379 70.7017 92.672 69.531 93.1403 68.5618C93.6086 67.5817 94.262 66.7812 95.1005 66.1605C95.9391 65.5398 96.9137 65.066 98.0245 64.7393C99.1462 64.4126 100.355 64.2003 101.651 64.1023C103.056 63.9934 104.183 63.8627 105.032 63.7102C105.893 63.5469 106.513 63.3236 106.895 63.0405C107.276 62.7464 107.466 62.3598 107.466 61.8807V61.8153C107.466 61.1619 107.216 60.661 106.715 60.3125C106.214 59.964 105.571 59.7898 104.787 59.7898C103.927 59.7898 103.225 59.9803 102.68 60.3615C102.146 60.7318 101.825 61.3035 101.716 62.0767H93.418C93.5269 60.5521 94.0115 59.1472 94.8718 57.8622C95.743 56.5663 97.0117 55.5317 98.6779 54.7585C100.344 53.9744 102.424 53.5824 104.918 53.5824C106.715 53.5824 108.327 53.7947 109.753 54.2194C111.18 54.6333 112.394 55.2159 113.396 55.9673C114.398 56.7078 115.16 57.5791 115.683 58.5809C116.217 59.572 116.483 60.6501 116.483 61.8153V79H108.054V75.4716H107.858C107.357 76.4081 106.748 77.165 106.029 77.7422C105.321 78.3193 104.51 78.7386 103.595 79C102.691 79.2613 101.694 79.392 100.605 79.392ZM103.546 73.7074C104.232 73.7074 104.874 73.5658 105.473 73.2826C106.083 72.9995 106.579 72.5911 106.96 72.0575C107.341 71.5239 107.532 70.8759 107.532 70.1136V68.0227C107.292 68.1207 107.036 68.2133 106.764 68.3004C106.502 68.3875 106.219 68.4692 105.914 68.5454C105.62 68.6217 105.305 68.6925 104.967 68.7578C104.64 68.8231 104.297 68.883 103.938 68.9375C103.241 69.0464 102.669 69.2261 102.223 69.4765C101.787 69.7161 101.46 70.0156 101.243 70.375C101.036 70.7235 100.932 71.1155 100.932 71.5511C100.932 72.2481 101.177 72.7817 101.667 73.152C102.157 73.5222 102.784 73.7074 103.546 73.7074Z" fill="#1E222C"/>
<path d="M77.342 53.9091L81.0011 61.6847L84.8562 53.9091H93.8079L87.0778 66.4545L94.1346 79H85.2482L81.0011 71.0284L76.8846 79H67.8676L74.9897 66.4545L68.3249 53.9091H77.342Z" fill="#1E222C"/>
<path d="M57.0923 79.4574C54.4134 79.4574 52.1047 78.9455 50.1662 77.9219C48.2387 76.8873 46.7522 75.4062 45.7067 73.4787C44.6721 71.5402 44.1548 69.2206 44.1548 66.5199C44.1548 63.928 44.6776 61.6629 45.723 59.7244C46.7685 57.786 48.2441 56.2777 50.1499 55.1996C52.0557 54.1214 54.3045 53.5824 56.8963 53.5824C58.7912 53.5824 60.5064 53.8764 62.0419 54.4645C63.5774 55.0525 64.8897 55.9074 65.9787 57.0291C67.0677 58.1399 67.9063 59.4903 68.4943 61.0802C69.0824 62.6702 69.3764 64.4616 69.3764 66.4545V68.5454H46.9645V63.5795H61.0781C61.0673 62.8608 60.8821 62.2291 60.5227 61.6846C60.1743 61.1292 59.7005 60.6991 59.1016 60.3942C58.5135 60.0783 57.8438 59.9204 57.0923 59.9204C56.3627 59.9204 55.693 60.0783 55.0831 60.3942C54.4733 60.6991 53.9832 61.1238 53.6129 61.6683C53.2536 62.2128 53.063 62.8499 53.0412 63.5795V68.9375C53.0412 69.7434 53.21 70.4621 53.5476 71.0937C53.8852 71.7254 54.3698 72.2209 55.0014 72.5802C55.6331 72.9396 56.3954 73.1193 57.2884 73.1193C57.9091 73.1193 58.4754 73.0322 58.9872 72.8579C59.51 72.6837 59.9565 72.4332 60.3267 72.1065C60.697 71.7689 60.9692 71.366 61.1435 70.8977H69.3764C69.0933 72.6401 68.4236 74.1539 67.3672 75.4389C66.3109 76.713 64.9115 77.7041 63.1691 78.4119C61.4375 79.1089 59.4119 79.4574 57.0923 79.4574Z" fill="#1E222C"/>
<path d="M43.6953 45.5454V79H34.6783V45.5454H43.6953Z" fill="#1E222C"/>
<path d="M9.84661 79H0.0454712L11.0881 45.5454H23.5029L34.5455 79H24.7443L17.4262 54.7585H17.1648L9.84661 79ZM8.01706 65.8011H26.4432V72.5966H8.01706V65.8011Z" fill="#1E222C"/>
<path d="M124.747 2.54544V36H115.73V2.54544H124.747Z" fill="#1E222C"/>
<path d="M102.986 36.4574C100.307 36.4574 97.9986 35.9455 96.0602 34.9219C94.1326 33.8873 92.6461 32.4062 91.6007 30.4787C90.5661 28.5402 90.0488 26.2206 90.0488 23.5199C90.0488 20.928 90.5715 18.6629 91.617 16.7244C92.6625 14.786 94.1381 13.2777 96.0439 12.1996C97.9496 11.1214 100.198 10.5824 102.79 10.5824C104.685 10.5824 106.4 10.8764 107.936 11.4645C109.471 12.0525 110.784 12.9074 111.873 14.0291C112.962 15.1399 113.8 16.4903 114.388 18.0802C114.976 19.6702 115.27 21.4616 115.27 23.4545V25.5454H92.8585V20.5795H106.972C106.961 19.8608 106.776 19.2291 106.417 18.6846C106.068 18.1292 105.595 17.6991 104.996 17.3942C104.407 17.0783 103.738 16.9204 102.986 16.9204C102.257 16.9204 101.587 17.0783 100.977 17.3942C100.367 17.6991 99.8772 18.1238 99.5069 18.6683C99.1475 19.2128 98.957 19.8499 98.9352 20.5795V25.9375C98.9352 26.7434 99.104 27.4621 99.4416 28.0937C99.7792 28.7254 100.264 29.2209 100.895 29.5802C101.527 29.9396 102.289 30.1193 103.182 30.1193C103.803 30.1193 104.369 30.0322 104.881 29.8579C105.404 29.6837 105.85 29.4332 106.221 29.1065C106.591 28.7689 106.863 28.366 107.037 27.8977H115.27C114.987 29.6401 114.318 31.1539 113.261 32.4389C112.205 33.713 110.805 34.7041 109.063 35.4119C107.331 36.1089 105.306 36.4574 102.986 36.4574Z" fill="#1E222C"/>
<path d="M73.9973 36.392C72.3965 36.392 70.9808 36.1307 69.7502 35.6079C68.5305 35.0743 67.5721 34.2684 66.8752 33.1903C66.1782 32.1122 65.8297 30.74 65.8297 29.0738C65.8297 27.7017 66.0639 26.531 66.5321 25.5618C67.0004 24.5817 67.6538 23.7812 68.4924 23.1605C69.3309 22.5398 70.3056 22.066 71.4164 21.7393C72.538 21.4126 73.7469 21.2003 75.0428 21.1023C76.4476 20.9934 77.5747 20.8627 78.4242 20.7102C79.2845 20.5469 79.9052 20.3236 80.2864 20.0405C80.6675 19.7464 80.8581 19.3598 80.8581 18.8807V18.8153C80.8581 18.1619 80.6077 17.661 80.1067 17.3125C79.6058 16.964 78.9632 16.7898 78.1791 16.7898C77.3188 16.7898 76.6164 16.9803 76.0719 17.3615C75.5383 17.7318 75.217 18.3035 75.1081 19.0767H66.8098C66.9187 17.5521 67.4033 16.1472 68.2637 14.8622C69.1349 13.5663 70.4036 12.5317 72.0698 11.7585C73.736 10.9744 75.816 10.5824 78.3098 10.5824C80.1067 10.5824 81.7184 10.7947 83.1451 11.2194C84.5717 11.6333 85.7859 12.2159 86.7878 12.9673C87.7897 13.7078 88.552 14.5791 89.0747 15.5809C89.6084 16.5719 89.8752 17.6501 89.8752 18.8153V36H81.4462V32.4716H81.2502C80.7492 33.4081 80.1394 34.165 79.4206 34.7422C78.7128 35.3193 77.9014 35.7386 76.9867 36C76.0828 36.2613 75.0863 36.392 73.9973 36.392ZM76.9377 30.7074C77.6237 30.7074 78.2663 30.5658 78.8652 30.2826C79.4751 29.9995 79.9706 29.5911 80.3517 29.0575C80.7329 28.5239 80.9235 27.8759 80.9235 27.1136V25.0227C80.6839 25.1207 80.428 25.2133 80.1557 25.3004C79.8943 25.3875 79.6112 25.4692 79.3063 25.5454C79.0122 25.6217 78.6964 25.6925 78.3588 25.7578C78.0321 25.8231 77.6891 25.883 77.3297 25.9375C76.6327 26.0464 76.061 26.2261 75.6145 26.4765C75.1789 26.7161 74.8522 27.0156 74.6344 27.375C74.4275 27.7235 74.324 28.1155 74.324 28.5511C74.324 29.2481 74.5691 29.7817 75.0591 30.152C75.5492 30.5222 76.1754 30.7074 76.9377 30.7074Z" fill="#1E222C"/>
<path d="M67.7797 10.9091V17.4432H50.9871V10.9091H67.7797ZM54.1888 36V10.1903C54.1888 8.12121 54.559 6.40601 55.2996 5.04474C56.0401 3.68347 57.0855 2.66524 58.4359 1.99005C59.7863 1.31486 61.3763 0.977264 63.2058 0.977264C64.3493 0.977264 65.4601 1.06439 66.5382 1.23863C67.6272 1.41287 68.4331 1.56533 68.9558 1.69601L67.649 8.16477C67.3223 8.06675 66.9411 7.99052 66.5055 7.93607C66.0699 7.87073 65.6888 7.83806 65.3621 7.83806C64.5126 7.83806 63.9409 8.01775 63.6469 8.37712C63.3528 8.7365 63.2058 9.21022 63.2058 9.79829V36H54.1888Z" fill="#1E222C"/>
<path d="M35.785 36.392C34.1841 36.392 32.7684 36.1307 31.5378 35.6079C30.3181 35.0743 29.3598 34.2684 28.6628 33.1903C27.9659 32.1122 27.6174 30.74 27.6174 29.0738C27.6174 27.7017 27.8515 26.531 28.3198 25.5618C28.7881 24.5817 29.4415 23.7812 30.28 23.1605C31.1186 22.5398 32.0932 22.066 33.204 21.7393C34.3257 21.4126 35.5345 21.2003 36.8304 21.1023C38.2353 20.9934 39.3624 20.8627 40.2118 20.7102C41.0722 20.5469 41.6929 20.3236 42.074 20.0405C42.4552 19.7464 42.6458 19.3598 42.6458 18.8807V18.8153C42.6458 18.1619 42.3953 17.661 41.8944 17.3125C41.3934 16.964 40.7509 16.7898 39.9668 16.7898C39.1065 16.7898 38.4041 16.9803 37.8596 17.3615C37.3259 17.7318 37.0047 18.3035 36.8958 19.0767H28.5975C28.7064 17.5521 29.191 16.1472 30.0513 14.8622C30.9225 13.5663 32.1912 12.5317 33.8574 11.7585C35.5236 10.9744 37.6036 10.5824 40.0975 10.5824C41.8944 10.5824 43.5061 10.7947 44.9327 11.2194C46.3593 11.6333 47.5736 12.2159 48.5755 12.9673C49.5774 13.7078 50.3397 14.5791 50.8624 15.5809C51.396 16.5719 51.6628 17.6501 51.6628 18.8153V36H43.2338V32.4716H43.0378C42.5369 33.4081 41.927 34.165 41.2083 34.7422C40.5004 35.3193 39.6891 35.7386 38.7743 36C37.8704 36.2613 36.874 36.392 35.785 36.392ZM38.7253 30.7074C39.4114 30.7074 40.0539 30.5658 40.6529 30.2826C41.2627 29.9995 41.7582 29.5911 42.1394 29.0575C42.5205 28.5239 42.7111 27.8759 42.7111 27.1136V25.0227C42.4715 25.1207 42.2156 25.2133 41.9434 25.3004C41.682 25.3875 41.3989 25.4692 41.0939 25.5454C40.7999 25.6217 40.4841 25.6925 40.1465 25.7578C39.8198 25.8231 39.4767 25.883 39.1174 25.9375C38.4204 26.0464 37.8487 26.2261 37.4022 26.4765C36.9666 26.7161 36.6399 27.0156 36.4221 27.375C36.2151 27.7235 36.1117 28.1155 36.1117 28.5511C36.1117 29.2481 36.3567 29.7817 36.8468 30.152C37.3368 30.5222 37.963 30.7074 38.7253 30.7074Z" fill="#1E222C"/>
<path d="M1.15625 36V2.54544H15.5966C18.0795 2.54544 20.2521 2.99738 22.1143 3.90126C23.9766 4.80515 25.425 6.10652 26.4595 7.80539C27.4941 9.50425 28.0114 11.5407 28.0114 13.9148C28.0114 16.3106 27.4777 18.3307 26.4105 19.9751C25.3542 21.6195 23.8677 22.861 21.951 23.6996C20.0452 24.5381 17.8182 24.9574 15.2699 24.9574H6.64489V17.9006H13.4403C14.5076 17.9006 15.4169 17.7699 16.1683 17.5085C16.9306 17.2363 17.5133 16.8061 17.9162 16.218C18.33 15.63 18.5369 14.8622 18.5369 13.9148C18.5369 12.9564 18.33 12.1778 17.9162 11.5788C17.5133 10.969 16.9306 10.5225 16.1683 10.2393C15.4169 9.9453 14.5076 9.79828 13.4403 9.79828H10.2386V36H1.15625ZM20.7585 20.6449L29.1222 36H19.2557L11.0881 20.6449H20.7585Z" fill="#1E222C"/>
<path d="M233.016 49.4419L235.243 56.1781H235.331L237.554 49.4419H239.259L236.242 58H234.328L231.315 49.4419H233.016Z" fill="#1E222C"/>
<path d="M225.547 58V49.4419H231.113V50.7415H227.098V53.0649H230.825V54.3645H227.098V56.7004H231.147V58H225.547Z" fill="#1E222C"/>
<path d="M220.744 58H217.844V49.4419H220.803C221.652 49.4419 222.382 49.6132 222.992 49.9559C223.605 50.2957 224.076 50.7846 224.405 51.4226C224.734 52.0606 224.898 52.8239 224.898 53.7126C224.898 54.604 224.732 55.3702 224.401 56.0109C224.072 56.6517 223.597 57.1434 222.976 57.486C222.357 57.8287 221.613 58 220.744 58ZM219.394 56.6586H220.669C221.265 56.6586 221.762 56.55 222.161 56.3327C222.559 56.1126 222.859 55.7853 223.059 55.3507C223.26 54.9133 223.36 54.3673 223.36 53.7126C223.36 53.0579 223.26 52.5147 223.059 52.0829C222.859 51.6483 222.562 51.3237 222.169 51.1092C221.779 50.8919 221.294 50.7833 220.715 50.7833H219.394V56.6586Z" fill="#1E222C"/>
</svg>
